<svg xmlns="http://www.w3.org/2000/svg" xmlns:xlink="http://www.w3.org/1999/xlink" version="1.1" x="0px" y="0px" viewBox="0 0 100 125" enable-background="new 0 0 100 100" xml:space="preserve"><polygon points="24.702,24.9 23.852,24.75 23.057,25.085 22.938,24.231 22.373,23.578 23.149,23.2 23.595,22.462 24.194,23.083   25.034,23.279 24.629,24.04 "/><polygon points="9.797,30.264 9.017,30.125 8.287,30.434 8.177,29.649 7.658,29.049 8.371,28.702 8.78,28.024 9.33,28.594   10.102,28.774 9.73,29.474 "/><polygon points="33.96,9.766 32.961,9.589 32.026,9.984 31.885,8.979 31.221,8.211 32.134,7.767 32.658,6.898 33.363,7.629   34.351,7.859 33.874,8.755 "/><polygon points="69.654,90.427 68.655,90.25 67.72,90.644 67.579,89.639 66.915,88.872 67.828,88.428 68.352,87.559 69.057,88.289   70.045,88.52 69.568,89.415 "/><polygon points="85.723,53.004 84.724,52.827 83.789,53.222 83.648,52.216 82.984,51.449 83.897,51.005 84.421,50.136   85.126,50.866 86.114,51.097 85.637,51.993 "/><polygon points="73.723,14.004 72.724,13.827 71.789,14.222 71.648,13.216 70.984,12.449 71.897,12.005 72.421,11.136   73.126,11.866 74.114,12.097 73.637,12.993 "/><polygon points="91.023,85.304 90.024,85.127 89.089,85.522 88.948,84.516 88.284,83.749 89.197,83.305 89.721,82.436   90.426,83.166 91.414,83.397 90.937,84.293 "/><polygon points="24.714,88.666 23.854,88.514 23.049,88.854 22.928,87.989 22.357,87.328 23.142,86.946 23.594,86.199 24.2,86.827   25.05,87.025 24.64,87.796 "/><polygon points="14.75,64.249 13.925,64.103 13.152,64.429 13.036,63.599 12.488,62.965 13.241,62.598 13.674,61.88 14.256,62.484   15.073,62.674 14.679,63.414 "/><polygon points="89.298,25.506 87.991,25.275 86.769,25.79 86.585,24.476 85.717,23.473 86.91,22.893 87.595,21.757 88.516,22.712   89.808,23.013 89.185,24.184 "/><text x="0" y="115" fill="#000000" font-size="5px" font-weight="bold" font-family="'Helvetica Neue', Helvetica, Arial-Unicode, Arial, Sans-serif">Created by Ashley M. Wiles</text><text x="0" y="120" fill="#000000" font-size="5px" font-weight="bold" font-family="'Helvetica Neue', Helvetica, Arial-Unicode, Arial, Sans-serif">from the Noun Project</text></svg>